<svg width="46" height="46" viewBox="0 0 46 46" fill="none" xmlns="http://www.w3.org/2000/svg">
<circle cx="23.1043" cy="23.2338" r="22.5163" fill="#E2F4E2"/>
<path d="M19.9124 23.3843C20.6427 24.8925 21.8622 26.109 23.3723 26.8354C23.4837 26.8882 23.6069 26.911 23.7298 26.9017C23.8527 26.8923 23.971 26.8512 24.0732 26.7822L26.2911 25.3006C26.3891 25.2342 26.5023 25.1936 26.6202 25.1828C26.7382 25.1719 26.8569 25.1911 26.9654 25.2385L31.1173 27.0217C31.2592 27.0808 31.3778 27.1849 31.4547 27.3179C31.5317 27.451 31.5628 27.6056 31.5432 27.7581C31.4116 28.7852 30.9102 29.7292 30.133 30.4134C29.3557 31.0976 28.3557 31.4751 27.3202 31.4753C24.1203 31.4753 21.0513 30.2042 18.7886 27.9414C16.5259 25.6787 15.2547 22.6098 15.2547 19.4098C15.2549 18.3743 15.6325 17.3743 16.3167 16.5971C17.0009 15.8198 17.9448 15.3185 18.972 15.1869C19.1244 15.1673 19.2791 15.1984 19.4121 15.2753C19.5452 15.3523 19.6492 15.4708 19.7083 15.6127L21.4915 19.7735C21.5379 19.8803 21.5573 19.9968 21.548 20.1129C21.5387 20.2289 21.501 20.3409 21.4383 20.4389L19.9567 22.6923C19.8908 22.7943 19.852 22.9114 19.8443 23.0326C19.8365 23.1537 19.8599 23.2748 19.9124 23.3843V23.3843Z" stroke="#37A437" stroke-linecap="round" stroke-linejoin="round"/>
</svg>
