<svg width="53" height="53" viewBox="0 0 53 53" fill="none" xmlns="http://www.w3.org/2000/svg">
<circle cx="26.1658" cy="26.3546" r="26.1658" fill="#EAEAEA"/>
<path d="M25.7502 27.3205C27.7891 27.3205 29.4419 25.6677 29.4419 23.6288C29.4419 21.5899 27.7891 19.937 25.7502 19.937C23.7113 19.937 22.0584 21.5899 22.0584 23.6288C22.0584 25.6677 23.7113 27.3205 25.7502 27.3205Z" stroke="#181818" stroke-width="2" stroke-linecap="round" stroke-linejoin="round"/>
<path d="M34.9783 23.6288C34.9783 31.9352 25.7489 38.3958 25.7489 38.3958C25.7489 38.3958 16.5195 31.9352 16.5195 23.6288C16.5195 21.181 17.4919 18.8335 19.2228 17.1026C20.9536 15.3718 23.3011 14.3994 25.7489 14.3994C28.1967 14.3994 30.5442 15.3718 32.2751 17.1026C34.0059 18.8335 34.9783 21.181 34.9783 23.6288V23.6288Z" stroke="#181818" stroke-width="2" stroke-linecap="round" stroke-linejoin="round"/>
</svg>
