<svg width="199" height="45" viewBox="0 0 199 45" fill="none" xmlns="http://www.w3.org/2000/svg">
<g clip-path="url(#clip0_68_2)">
<path d="M54.72 24.8727C57.74 26.7727 62.76 27.0627 64.73 30.0927C67.91 34.9827 63.62 39.1527 58.54 39.2827C55.19 39.3727 52.55 38.1927 50.62 35.7627C50.23 35.2627 50.29 34.8327 50.81 34.4727L51.06 34.2927C51.25 34.1627 51.51 34.1827 51.67 34.3427C54.36 37.0727 57.38 37.9627 60.73 37.0227C62.39 36.5627 63.77 35.1927 63.67 33.3727C63.36 27.2827 53.18 29.8327 51.6 23.9727C49.42 15.9027 60.83 14.0327 65.11 18.8027C65.55 19.2927 65.54 19.7627 65.08 20.2227L64.88 20.4327C64.59 20.7227 64.3 20.7327 64 20.4527C61.29 17.9327 58.36 17.4327 55.22 18.9627C52.93 20.0727 52.46 23.4427 54.72 24.8727Z" fill="#959696"/>
<path d="M134.46 22.7226L137.53 22.7426C137.79 22.7426 138 22.9526 138 23.2126C138 23.2226 138 23.2326 138 23.2426L137.98 23.6426C137.95 24.1126 137.56 24.4726 137.09 24.4726H134.44C134.07 24.4726 133.88 24.6726 133.88 25.0426V36.1826C133.88 36.6726 134.27 37.0726 134.75 37.1026L136.88 37.2426C137.05 37.2526 137.17 37.3926 137.16 37.5626C137.16 37.5826 137.16 37.6026 137.15 37.6226L137.05 38.0126C136.91 38.5126 136.58 38.8026 136.07 38.8726C133.34 39.2826 131.95 38.1326 131.91 35.4426C131.86 32.2226 131.86 28.7726 131.91 25.1026C131.91 24.7126 131.72 24.5126 131.32 24.5026L129.51 24.4626C129.09 24.4626 128.83 24.2526 128.74 23.8426L128.65 23.4326C128.58 23.1526 128.76 22.8726 129.05 22.8026C129.08 22.8026 129.11 22.7926 129.14 22.7926L131.3 22.6726C131.69 22.6526 131.88 22.4526 131.88 22.0726L131.9 18.9726C131.9 18.6326 132.16 18.3426 132.51 18.3026L133.15 18.2426C133.6 18.2026 133.83 18.4126 133.84 18.8626L133.9 22.1626C133.9 22.5326 134.09 22.7226 134.46 22.7226Z" fill="#959696"/>
<path d="M110.84 36.7426C109.57 38.2526 108.04 39.0726 106.24 39.2126C95.8 40.0326 95.2 23.0626 104.76 22.2626C107.29 22.0526 109.35 22.9226 110.95 24.8726C111.25 25.2426 111.4 25.1826 111.41 24.7126V23.2226C111.41 22.8326 111.61 22.6426 112 22.6426H112.6C113.04 22.6426 113.26 22.8626 113.26 23.3126V38.2726C113.25 38.6426 113.07 38.8326 112.7 38.8426L112.05 38.8726C111.62 38.8826 111.41 38.6826 111.4 38.2526V36.9326C111.38 36.3726 111.2 36.3126 110.84 36.7426ZM105.7 37.5426C108.94 37.5326 111.55 34.4826 111.54 30.7426C111.53 27.0026 108.89 23.9726 105.66 23.9826C102.42 23.9926 99.81 27.0426 99.82 30.7826C99.83 34.5226 102.47 37.5526 105.7 37.5426Z" fill="#959696"/>
<path d="M120.87 25.3824C121.33 24.7924 121.56 24.1824 122.17 23.6724C123.76 22.3424 125.48 21.9524 127.32 22.4824C127.69 22.5924 127.8 22.8224 127.67 23.1724L127.54 23.5124C127.37 23.9724 127.05 24.1624 126.56 24.0824C122.14 23.3424 120.08 27.6024 120.21 31.4524C120.3 33.7824 120.3 36.0724 120.22 38.3224C120.21 38.6724 119.92 38.9424 119.57 38.9324C119.57 38.9324 119.57 38.9324 119.56 38.9324L119.04 38.9124C118.61 38.9024 118.39 38.6824 118.39 38.2524V23.6624C118.39 23.1324 118.65 22.8524 119.18 22.8324H119.5C119.87 22.8124 120.18 23.0924 120.2 23.4624L120.32 25.2124C120.36 25.7424 120.54 25.8024 120.87 25.3824Z" fill="#959696"/>
<path d="M72.09 24.9926C72.8 24.3826 73.48 23.5326 74.35 23.1626C77.69 21.7526 80.24 22.5226 82.01 25.4526C82.2 25.7626 82.4 25.7726 82.61 25.4826C86.1 20.8026 93.84 21.3626 93.89 28.4726C93.91 31.8026 93.89 35.1026 93.82 38.3526C93.81 38.8126 93.57 38.9926 93.12 38.9026L92.71 38.8226C92.25 38.7226 92.02 38.4426 92.02 37.9726L91.99 28.6026C91.99 26.0326 90.7 24.6326 88.15 24.3926C87.7 24.3426 87.27 24.3726 86.86 24.4726C84.05 25.1426 82.64 26.9226 82.64 29.8126V37.9626C82.64 38.4426 82.26 38.8526 81.77 38.8926L81.44 38.9226C81 38.9526 80.78 38.7526 80.79 38.3126C80.79 35.0726 80.76 31.8726 80.71 28.7126C80.58 21.7626 71.57 23.5626 71.62 29.6426C71.65 32.5526 71.64 35.4226 71.61 38.2326C71.61 38.6426 71.4 38.8626 70.99 38.8826L70.5 38.9126C70.01 38.9426 69.76 38.7126 69.76 38.2126V23.7526C69.76 23.5426 69.84 23.3326 69.99 23.1826C70.39 22.7326 70.78 22.6326 71.15 22.8726C71.44 23.0526 71.6 23.3226 71.63 23.6726C71.66 24.0226 71.65 24.3726 71.6 24.7226C71.53 25.2526 71.69 25.3426 72.09 24.9926Z" fill="#959696"/>
<path d="M145.49 23.5624C145.49 21.6224 146.97 20.1924 148.96 20.1924C149.92 20.1924 150.79 20.5124 151.38 21.1524L150.94 21.5924C150.4 21.0424 149.74 20.8024 148.98 20.8024C147.38 20.8024 146.18 21.9724 146.18 23.5424C146.18 25.1124 147.38 26.2824 148.98 26.2824C149.74 26.2824 150.4 26.0424 150.94 25.4924L151.38 25.9324C150.79 26.5724 149.92 26.9024 148.95 26.9024C146.96 26.9024 145.49 25.4724 145.49 23.5324V23.5624Z" fill="#959696"/>
<path d="M152.02 24.3825C152.02 22.9025 153.1 21.8525 154.56 21.8525C156.02 21.8525 157.09 22.9025 157.09 24.3825C157.09 25.8625 156.02 26.9225 154.56 26.9225C153.1 26.9225 152.02 25.8625 152.02 24.3825ZM156.4 24.3825C156.4 23.2225 155.61 22.4425 154.56 22.4425C153.51 22.4425 152.71 23.2225 152.71 24.3825C152.71 25.5425 153.5 26.3225 154.56 26.3225C155.62 26.3225 156.4 25.5425 156.4 24.3825Z" fill="#959696"/>
<path d="M163.04 23.9923V26.8823H162.37V24.0623C162.37 23.0123 161.82 22.4723 160.87 22.4723C159.8 22.4723 159.13 23.1323 159.13 24.2723V26.8823H158.46V21.9023H159.1V22.8223C159.46 22.2123 160.13 21.8623 160.99 21.8623C162.2 21.8623 163.03 22.5623 163.03 23.9923H163.04Z" fill="#959696"/>
<path d="M164.18 26.3126L164.48 25.7826C164.88 26.0926 165.55 26.3426 166.25 26.3426C167.2 26.3426 167.58 26.0226 167.58 25.5326C167.58 24.2326 164.35 25.2626 164.35 23.2926C164.35 22.4826 165.05 21.8726 166.32 21.8726C166.96 21.8726 167.66 22.0526 168.08 22.3326L167.79 22.8726C167.35 22.5726 166.83 22.4526 166.32 22.4526C165.42 22.4526 165.02 22.8026 165.02 23.2726C165.02 24.6126 168.25 23.6026 168.25 25.5126C168.25 26.3726 167.49 26.9326 166.2 26.9326C165.38 26.9326 164.58 26.6726 164.18 26.3226V26.3126Z" fill="#959696"/>
<path d="M173.98 21.9023V26.8823H173.34V25.9723C172.99 26.5823 172.35 26.9323 171.55 26.9323C170.28 26.9323 169.45 26.2223 169.45 24.7923V21.9023H170.12V24.7223C170.12 25.7823 170.67 26.3223 171.62 26.3223C172.66 26.3223 173.31 25.6523 173.31 24.5123V21.9023H173.98Z" fill="#959696"/>
<path d="M175.87 19.8525H176.54V26.8725H175.87V19.8525Z" fill="#959696"/>
<path d="M181.05 26.5727C180.79 26.8127 180.39 26.9227 180 26.9227C179.06 26.9227 178.54 26.3927 178.54 25.4727V22.4627H177.65V21.8927H178.54V20.8027H179.21V21.8927H180.72V22.4627H179.21V25.4327C179.21 26.0227 179.51 26.3427 180.07 26.3427C180.34 26.3427 180.62 26.2527 180.81 26.0827L181.05 26.5627V26.5727Z" fill="#959696"/>
<path d="M181.6 24.3825C181.6 22.9025 182.68 21.8525 184.14 21.8525C185.6 21.8525 186.67 22.9025 186.67 24.3825C186.67 25.8625 185.6 26.9225 184.14 26.9225C182.68 26.9225 181.6 25.8625 181.6 24.3825ZM185.98 24.3825C185.98 23.2225 185.19 22.4425 184.14 22.4425C183.09 22.4425 182.29 23.2225 182.29 24.3825C182.29 25.5425 183.08 26.3225 184.14 26.3225C185.2 26.3225 185.98 25.5425 185.98 24.3825Z" fill="#959696"/>
<path d="M190.54 21.8623V22.5123C190.48 22.5123 190.43 22.5123 190.38 22.5123C189.34 22.5123 188.71 23.1723 188.71 24.3523V26.8923H188.04V21.9123H188.68V22.8823C188.99 22.2223 189.63 21.8723 190.54 21.8723V21.8623Z" fill="#959696"/>
<path d="M191.6 20.3323C191.6 20.0823 191.82 19.8623 192.09 19.8623C192.36 19.8623 192.58 20.0723 192.58 20.3223C192.58 20.5923 192.37 20.8123 192.09 20.8123C191.81 20.8123 191.6 20.5923 191.6 20.3323ZM191.75 21.9023H192.42V26.8823H191.75V21.9023Z" fill="#959696"/>
<path d="M198.06 23.7925V26.8725H197.42V26.0925C197.12 26.6025 196.53 26.9125 195.71 26.9125C194.58 26.9125 193.89 26.3225 193.89 25.4625C193.89 24.6925 194.38 24.0525 195.81 24.0525H197.39V23.7525C197.39 22.9025 196.91 22.4325 195.98 22.4325C195.34 22.4325 194.73 22.6625 194.32 23.0225L194.02 22.5225C194.52 22.1025 195.26 21.8525 196.05 21.8525C197.34 21.8525 198.06 22.4925 198.06 23.7825V23.7925ZM197.38 25.3825V24.5725H195.82C194.86 24.5725 194.54 24.9525 194.54 25.4625C194.54 26.0425 195 26.4025 195.8 26.4025C196.6 26.4025 197.12 26.0425 197.38 25.3925V25.3825Z" fill="#959696"/>
<path d="M145.43 35.7527C145.43 34.2627 146.51 33.2227 147.99 33.2227C148.83 33.2227 149.54 33.5527 149.94 34.2027L149.44 34.5427C149.1 34.0427 148.57 33.8027 147.99 33.8027C146.9 33.8027 146.11 34.5827 146.11 35.7427C146.11 36.9027 146.9 37.6827 147.99 37.6827C148.57 37.6827 149.1 37.4527 149.44 36.9527L149.94 37.2927C149.54 37.9327 148.83 38.2727 147.99 38.2727C146.5 38.2727 145.43 37.2227 145.43 35.7327V35.7527Z" fill="#959696"/>
<path d="M150.68 35.7527C150.68 34.2727 151.76 33.2227 153.22 33.2227C154.68 33.2227 155.75 34.2727 155.75 35.7527C155.75 37.2327 154.68 38.2927 153.22 38.2927C151.76 38.2927 150.68 37.2327 150.68 35.7527ZM155.06 35.7527C155.06 34.5927 154.27 33.8127 153.22 33.8127C152.17 33.8127 151.37 34.5927 151.37 35.7527C151.37 36.9127 152.16 37.6927 153.22 37.6927C154.28 37.6927 155.06 36.9127 155.06 35.7527Z" fill="#959696"/>
<path d="M161.69 35.3527V38.2427H161.02V35.4227C161.02 34.3727 160.47 33.8327 159.52 33.8327C158.45 33.8327 157.78 34.4927 157.78 35.6327V38.2427H157.11V33.2627H157.75V34.1827C158.11 33.5727 158.78 33.2227 159.64 33.2227C160.85 33.2227 161.68 33.9227 161.68 35.3527H161.69Z" fill="#959696"/>
<path d="M166.14 37.9326C165.88 38.1726 165.48 38.2826 165.09 38.2826C164.15 38.2826 163.63 37.7526 163.63 36.8326V33.8226H162.74V33.2526H163.63V32.1626H164.3V33.2526H165.81V33.8226H164.3V36.7926C164.3 37.3826 164.6 37.7026 165.16 37.7026C165.43 37.7026 165.71 37.6226 165.9 37.4526L166.14 37.9326Z" fill="#959696"/>
<path d="M171.12 35.1528V38.2328H170.48V37.4528C170.18 37.9628 169.59 38.2728 168.77 38.2728C167.64 38.2728 166.95 37.6828 166.95 36.8228C166.95 36.0528 167.44 35.4128 168.87 35.4128H170.45V35.1128C170.45 34.2628 169.97 33.7928 169.04 33.7928C168.4 33.7928 167.79 34.0228 167.38 34.3828L167.08 33.8828C167.58 33.4528 168.32 33.2128 169.11 33.2128C170.4 33.2128 171.12 33.8528 171.12 35.1428V35.1528ZM170.45 36.7428V35.9328H168.89C167.93 35.9328 167.61 36.3128 167.61 36.8228C167.61 37.4028 168.07 37.7628 168.87 37.7628C169.67 37.7628 170.19 37.4028 170.45 36.7528V36.7428ZM169.17 32.4928H168.51L169.81 31.3228H170.71L169.18 32.4928H169.17Z" fill="#959696"/>
<path d="M178 35.7527C178 37.2527 176.94 38.2927 175.52 38.2927C174.7 38.2927 174.01 37.9327 173.6 37.2627V38.2427H172.96V31.2227H173.63V34.2127C174.05 33.5727 174.73 33.2327 175.52 33.2327C176.94 33.2327 178 34.2527 178 35.7627V35.7527ZM177.32 35.7527C177.32 34.5927 176.52 33.8127 175.47 33.8127C174.42 33.8127 173.62 34.5927 173.62 35.7527C173.62 36.9127 174.41 37.6927 175.47 37.6927C176.53 37.6927 177.32 36.9127 177.32 35.7527Z" fill="#959696"/>
<path d="M179.22 31.6927C179.22 31.4427 179.44 31.2227 179.71 31.2227C179.98 31.2227 180.2 31.4327 180.2 31.6827C180.2 31.9527 179.99 32.1727 179.71 32.1727C179.43 32.1727 179.22 31.9527 179.22 31.6927ZM179.37 33.2627H180.04V38.2427H179.37V33.2627Z" fill="#959696"/>
<path d="M181.92 31.2124H182.59V38.2324H181.92V31.2124Z" fill="#959696"/>
<path d="M141.61 18.2422H140.98V38.9522H141.61V18.2422Z" fill="#959696"/>
<path d="M41.26 32.7524L39.32 35.8524L37.75 37.6724C35.03 40.6224 31.61 42.6724 27.49 43.8324C27.44 43.8424 27.38 43.8224 27.37 43.7624C27.37 43.7624 27.37 43.7424 27.37 43.7324V38.1624C27.37 38.0524 27.42 37.9824 27.52 37.9424C32.56 35.9224 35.88 32.3224 37.48 27.1224C38.37 23.7224 38.23 20.3824 37.06 17.1024C35.02 12.0724 31.42 8.76242 26.24 7.16242L24.99 6.85242L23.17 6.63242L20.92 6.60242L17.82 7.06242L15.79 7.73242L14.61 8.26242L12.97 9.19242C9.57999 11.4724 7.31999 14.5724 6.17999 18.5024C5.27999 22.0124 5.47999 25.4324 6.77999 28.7824C8.14999 32.0924 10.35 34.6924 13.39 36.5824L16.24 37.9424C16.31 37.9724 16.36 38.0524 16.36 38.1224V43.7024C16.37 43.7724 16.32 43.8324 16.24 43.8324C16.23 43.8324 16.21 43.8324 16.2 43.8324L13.14 42.7524C10.75 41.7124 8.61999 40.2924 6.74999 38.5024L4.61999 36.1524L3.32999 34.3124L2.73999 33.3424C-0.770013 26.8924 -0.900013 19.2824 2.42999 12.7424L2.94999 11.8424L4.52999 9.46242L6.31999 7.43242C8.24999 5.47242 10.49 3.93242 13.05 2.79242L15.48 1.88242L16.6 1.59242L17.99 1.29242L20.88 0.982422L23.36 1.01242L24.89 1.17242L26.66 1.46242C30.55 2.35242 33.95 4.17242 36.87 6.90242L39.17 9.40242L40.82 11.9024C44.56 18.3324 44.61 26.1524 41.28 32.7524H41.26Z" fill="#7D7D7D"/>
<path d="M26.32 20.2326V43.8826C26.32 43.9726 26.28 44.0326 26.21 44.0726C26.06 44.1626 25.84 44.2126 25.55 44.2326L24.06 44.4626L22.34 44.5526H20.7L17.81 44.1826C17.67 44.1726 17.55 44.1326 17.45 44.0726C17.38 44.0326 17.34 43.9626 17.34 43.8826V20.3926C17.34 20.2826 17.4 20.2226 17.52 20.2226L18.07 20.2426L20.74 20.2626H22.13H23.87H26.07C26.07 20.2626 26.08 20.2126 26.09 20.2026L26.32 20.2326Z" fill="#646464"/>
<path d="M16.34 26.3423V36.5223C16.34 36.5223 16.31 36.5923 16.27 36.5923C16.26 36.5923 16.25 36.5923 16.24 36.5923L15.04 35.9823L13.45 35.0823C11.06 33.4223 9.28 31.2723 8.1 28.6123C7.76 27.8523 7.52 27.0623 7.38 26.2423C7.36 26.1523 7.4 26.1123 7.5 26.1123L11.78 26.1323H14.25H15.15H16.29C16.32 26.1923 16.34 26.2623 16.34 26.3323V26.3423Z" fill="#999999"/>
<path d="M36.33 26.3624C35.11 30.9924 31.95 34.6924 27.51 36.5624C27.45 36.5924 27.38 36.5624 27.36 36.5024C27.36 36.4924 27.36 36.4724 27.36 36.4524V26.2224C27.36 26.1224 27.4 26.0924 27.5 26.1224C27.61 26.1524 27.68 26.1824 27.8 26.1824C30.55 26.1424 33.33 26.1224 36.14 26.1124C36.32 26.1124 36.38 26.2024 36.34 26.3724L36.33 26.3624Z" fill="#A9A9A9"/>
</g>
<defs>
<clipPath id="clip0_68_2">
<rect width="198.06" height="43.57" fill="white" transform="translate(0 0.982422)"/>
</clipPath>
</defs>
</svg>
